<svg width="136" height="136" viewBox="0 0 136 136" fill="none" xmlns="http://www.w3.org/2000/svg">
<path d="M34 49.814C106.412 16.834 131.03 41.3872 134.992 56.2747C135.654 60.0838 136 64.0015 136 68C136 105.555 105.555 136 68 136C67.5643 136 67.1296 135.994 66.6958 135.986C66.7352 135.987 66.7746 135.988 66.814 135.988C37.9535 120.19 32.4186 58.5116 34 49.814ZM20.9535 57.3256C13.4419 77.4884 14.2326 98.906 15.0233 110.634C15.0233 110.634 15.0262 110.638 15.0317 110.646C5.7825 99.1725 0.184958 84.6323 0.004633 68.7899C1.99276 68.777 12.2626 60.4859 20.9535 57.3256ZM68 0C81.732 0 94.5129 4.07118 105.203 11.0713C104.872 11.1569 93.1766 14.1804 85.7907 16.6047C66.3534 22.9845 37.9535 37.9535 37.9535 37.9535L45.0698 16.6047L34 21.7442L24.1163 47.0465L0.004633 68.786C0.00166906 68.5244 0 68.2624 0 68C0 30.4446 30.4446 0 68 0Z" fill="#DC0C18"/>
</svg>
